<svg width="35" height="56" viewBox="0 0 35 56" fill="none" xmlns="http://www.w3.org/2000/svg">
<path d="M8.16667 6.33333H29.5C30.5609 6.33333 31.5783 6.75476 32.3284 7.5049C33.0786 8.25505 33.5 9.27247 33.5 10.3333V13C33.5 14.0609 33.0786 15.0783 32.3284 15.8284C31.5783 16.5786 30.5609 17 29.5 17H12.1667V37C12.1667 37 12.1667 43.6667 18.8333 43.6667H29.5C30.5609 43.6667 31.5783 44.0881 32.3284 44.8382C33.0786 45.5884 33.5 46.6058 33.5 47.6667V50.3333C33.5 51.3942 33.0786 52.4116 32.3284 53.1618C31.5783 53.9119 30.5609 54.3333 29.5 54.3333H14.8333C1.5 54.3333 1.5 41 1.5 41V-3C1.5 -4.06087 1.92143 -5.07828 2.67157 -5.82843C3.42172 -6.57857 4.43913 -7 5.5 -7H8.16667C9.22753 -7 10.2449 -6.57857 10.9951 -5.82843C11.7452 -5.07828 12.1667 -4.06087 12.1667 -3V1" stroke="#8A8F9F" stroke-width="2" stroke-linecap="round" stroke-linejoin="round"/>
</svg>
