<svg width="24" height="24" viewBox="0 0 24 24" fill="none" xmlns="http://www.w3.org/2000/svg">
<path d="M14.83 20.01C14.41 21.17 13.3 22 12 22C11.21 22 10.43 21.68 9.87999 21.11C9.55999 20.81 9.31999 20.41 9.17999 20C9.30999 20.02 9.43999 20.03 9.57999 20.05C9.80999 20.08 10.05 20.11 10.29 20.13C10.86 20.18 11.44 20.21 12.02 20.21C12.59 20.21 13.16 20.18 13.72 20.13C13.93 20.11 14.14 20.1 14.34 20.07C14.5 20.05 14.66 20.03 14.83 20.01Z" fill="white"/>
<path fill-rule="evenodd" clip-rule="evenodd" d="M13.7986 2.60151C13.2964 2.21783 12.6699 2 11.9899 2C10.8999 2 9.91994 2.59 9.39994 3.52C7.44994 4.49 6.09994 6.5 6.09994 8.82V11.35C6.09994 11.76 5.90994 12.46 5.69994 12.82L4.68994 14.49C4.28994 15.16 4.19994 15.9 4.44994 16.58C4.68994 17.25 5.25994 17.77 5.99994 18.02C7.93994 18.68 9.97994 19 12.0199 19C14.0599 19 16.0999 18.68 18.0399 18.03C18.7399 17.8 19.2799 17.27 19.5399 16.58C19.7999 15.89 19.7299 15.13 19.3399 14.49L18.3399 12.83C18.1299 12.46 17.9399 11.76 17.9399 11.35V8.88894C17.6385 8.96154 17.3237 9 17 9C14.7909 9 13 7.20914 13 5C13 4.10019 13.2971 3.26978 13.7986 2.60151Z" fill="white"/>
<circle cx="17.5" cy="4.5" r="3.5" fill="#B70214"/>
</svg>
