<svg width="65" height="54" viewBox="0 0 65 54" fill="none" xmlns="http://www.w3.org/2000/svg">
<path d="M55.4986 4.99918H70.498V-4.00047C70.498 -7.18294 69.2338 -10.2351 66.9835 -12.4854C64.7331 -14.7358 61.681 -16 58.4985 -16H13.2453C11.6814 -16 10.1333 -15.6877 8.69165 -15.0814C7.25005 -14.4752 5.944 -13.5872 4.8501 -12.4695C3.7562 -11.3519 2.89647 -10.0271 2.32133 -8.57279C1.74618 -7.11849 1.4672 -5.564 1.50075 -4.00047V4.99918H16.5002" stroke="#8A8F9F" stroke-width="2" stroke-linecap="round" stroke-linejoin="round"/>
<path d="M70.4973 10.999V40.9978C70.4973 44.1803 69.2331 47.2324 66.9827 49.4828C64.7324 51.7331 61.6802 52.9974 58.4978 52.9974H13.4995C10.3171 52.9974 7.26493 51.7331 5.01458 49.4828C2.76423 47.2324 1.5 44.1803 1.5 40.9978V10.999" stroke="#8A8F9F" stroke-width="2" stroke-linecap="round" stroke-linejoin="round"/>
<path d="M35.9994 37.9977C45.1117 37.9977 52.4987 30.6107 52.4987 21.4984C52.4987 12.386 45.1117 4.99902 35.9994 4.99902C26.887 4.99902 19.5 12.386 19.5 21.4984C19.5 30.6107 26.887 37.9977 35.9994 37.9977Z" stroke="#8A8F9F" stroke-width="2" stroke-linecap="round" stroke-linejoin="round"/>
<path d="M35.9996 31.9981C41.7984 31.9981 46.4992 27.2973 46.4992 21.4985C46.4992 15.6998 41.7984 10.9989 35.9996 10.9989C30.2009 10.9989 25.5 15.6998 25.5 21.4985C25.5 27.2973 30.2009 31.9981 35.9996 31.9981Z" stroke="#8A8F9F" stroke-width="2" stroke-linecap="round" stroke-linejoin="round"/>
</svg>
