<svg width="24" height="24" viewBox="0 0 24 24" fill="none" xmlns="http://www.w3.org/2000/svg">
<path fill-rule="evenodd" clip-rule="evenodd" d="M10.6667 4.75C7.39898 4.75 4.75 7.39898 4.75 10.6667C4.75 13.9344 7.39898 16.5833 10.6667 16.5833C13.9344 16.5833 16.5833 13.9344 16.5833 10.6667C16.5833 7.39898 13.9344 4.75 10.6667 4.75ZM3.25 10.6667C3.25 6.57055 6.57055 3.25 10.6667 3.25C14.7628 3.25 18.0833 6.57055 18.0833 10.6667C18.0833 14.7628 14.7628 18.0833 10.6667 18.0833C6.57055 18.0833 3.25 14.7628 3.25 10.6667Z" fill="white"/>
<path fill-rule="evenodd" clip-rule="evenodd" d="M15.0252 15.0252C15.3181 14.7323 15.793 14.7323 16.0859 15.0252L20.5303 19.4697C20.8232 19.7625 20.8232 20.2374 20.5303 20.5303C20.2374 20.8232 19.7626 20.8232 19.4697 20.5303L15.0252 16.0859C14.7323 15.793 14.7323 15.3181 15.0252 15.0252Z" fill="white"/>
<path fill-rule="evenodd" clip-rule="evenodd" d="M16.489 13.918C16.9025 13.9426 17.2177 14.2977 17.1931 14.7112C17.1535 15.3767 17.0203 16.0217 16.5434 16.4941C16.0805 16.9527 15.4312 17.1079 14.7562 17.1891C14.345 17.2385 13.9715 16.9452 13.922 16.534C13.8726 16.1227 14.1659 15.7492 14.5771 15.6998C15.2026 15.6246 15.4054 15.5101 15.4878 15.4285C15.5562 15.3607 15.6617 15.195 15.6958 14.6221C15.7204 14.2086 16.0755 13.8934 16.489 13.918Z" fill="white"/>
</svg>
