<svg width="64" height="54" viewBox="0 0 64 54" fill="none" xmlns="http://www.w3.org/2000/svg">
<path d="M40.375 53V27.5H49.375L52.375 17H40.375V5.00003H50.875V-5.49997H32.875C32.2806 -5.51266 31.6897 -5.40493 31.138 -5.18327C30.5863 -4.96161 30.0852 -4.63061 29.6648 -4.2102C29.2444 -3.78978 28.9134 -3.28864 28.6917 -2.73694C28.47 -2.18524 28.3623 -1.5944 28.375 -0.999974V17H19.375V27.5H28.375V45.5" stroke="#8A8F9F" stroke-width="2" stroke-linecap="round" stroke-linejoin="round"/>
<path d="M40.375 53H58.375C61.5576 53 64.6098 51.7357 66.8603 49.4853C69.1107 47.2348 70.375 44.1826 70.375 41V-4C70.375 -7.1826 69.1107 -10.2348 66.8603 -12.4853C64.6098 -14.7357 61.5576 -16 58.375 -16H13.375C10.1924 -16 7.14016 -14.7357 4.88972 -12.4853C2.63928 -10.2348 1.375 -7.1826 1.375 -4V41C1.375 44.1826 2.63928 47.2348 4.88972 49.4853C7.14016 51.7357 10.1924 53 13.375 53H34.375" stroke="#8A8F9F" stroke-width="2" stroke-linecap="round" stroke-linejoin="round"/>
</svg>
