<svg width="11" height="14" viewBox="0 0 11 14" fill="none" xmlns="http://www.w3.org/2000/svg">
<path d="M4.75 -5.49554e-05C4.86703 -9.39693e-05 4.98036 0.0409164 5.07026 0.115834C5.16016 0.190752 5.22094 0.294831 5.242 0.409945L5.25 0.499945V3.49995C5.25012 4.07627 5.05111 4.63494 4.68665 5.0814C4.3222 5.52785 3.81468 5.83468 3.25 5.94994V13.4999C3.25023 13.6249 3.20367 13.7454 3.11949 13.8377C3.03531 13.9301 2.91961 13.9875 2.79518 13.9988C2.67074 14.0101 2.54659 13.9744 2.44717 13.8987C2.34775 13.823 2.28026 13.7129 2.258 13.5899L2.25 13.4999V5.94994C1.71417 5.84036 1.22902 5.55814 0.868883 5.14653C0.508742 4.73491 0.293457 4.21659 0.256001 3.67095L0.250001 3.49995V0.499945C0.249771 0.374999 0.29633 0.254495 0.380509 0.162162C0.464689 0.069829 0.580387 0.0123591 0.704822 0.00106967C0.829257 -0.0102198 0.95341 0.0254892 1.05283 0.101165C1.15225 0.17684 1.21974 0.286998 1.242 0.409945L1.25 0.499945V3.49995C1.24984 3.81027 1.34593 4.11301 1.52503 4.36644C1.70413 4.61986 1.95742 4.8115 2.25 4.91495V0.499945C2.24977 0.374999 2.29633 0.254495 2.38051 0.162162C2.46469 0.069829 2.58039 0.0123591 2.70482 0.00106967C2.82926 -0.0102198 2.95341 0.0254892 3.05283 0.101165C3.15225 0.17684 3.21974 0.286998 3.242 0.409945L3.25 0.499945V4.91395C3.788 4.72395 4.185 4.23595 4.243 3.64895L4.25 3.49995V0.499945C4.25 0.367337 4.30268 0.24016 4.39645 0.146392C4.49022 0.0526236 4.61739 -5.49554e-05 4.75 -5.49554e-05ZM9.75 -5.49554e-05C9.86703 -9.39693e-05 9.98036 0.0409164 10.0703 0.115834C10.1602 0.190752 10.2209 0.294831 10.242 0.409945L10.25 0.499945V13.4999C10.2502 13.6249 10.2037 13.7454 10.1195 13.8377C10.0353 13.9301 9.91961 13.9875 9.79518 13.9988C9.67074 14.0101 9.54659 13.9744 9.44717 13.8987C9.34775 13.823 9.28026 13.7129 9.258 13.5899L9.25 13.4999V7.99994H7.75C7.63298 7.99998 7.51964 7.95897 7.42974 7.88406C7.33984 7.80914 7.27907 7.70506 7.258 7.58995L7.25 7.49995V2.49995C7.25 1.8369 7.51339 1.20102 7.98223 0.732178C8.45107 0.263337 9.08696 -5.49554e-05 9.75 -5.49554e-05ZM9.25 6.99995V1.08495C8.712 1.27495 8.315 1.76294 8.257 2.35094L8.25 2.49995V6.99995H9.25V1.08495V6.99995Z" fill="#21479A"/>
</svg>
